<svg xmlns="http://www.w3.org/2000/svg"><symbol id="bag" viewBox="0 0 100 100"><path fill="#010101" d="M68.1 25.9v-8.1a16.2 16.2 0 0 0-32.4 0v8.1H15.5v72.8h72.8V25.9zm-28.4-8.1a12.2 12.2 0 1 1 24.3 0v8.1H39.7zm40.5 72.8H23.6V33.9h12.1V40a2 2 0 0 0 4 0v-6.1H64V40a2 2 0 0 0 2.1 2 2 2 0 0 0 2-2v-6.1h12.1z"/></symbol><symbol id="search" viewBox="0 0 100 100"><path fill="#010101" d="M87.6 99.2L57.4 69a36.1 36.1 0 0 1-19.5 5.6A36.7 36.7 0 1 1 69 57.4l30.1 30.2zM37.9 66.5A28.6 28.6 0 1 0 9.3 37.9a28.7 28.7 0 0 0 28.6 28.6z"/></symbol><symbol id="hamburger" viewBox="0 0 100 100"><path fill="#010101" d="M98.2 26.2h-96v-16h96zm0 15.9h-96v16h96zm0 32h-96v16h96z"/></symbol></svg>