<svg xmlns="http://www.w3.org/2000/svg" width="100" height="100" viewBox="0 0 100 100"><path fill="#f1f1f1" d="M36.3 81.1c1.4-2.2 2.9-4.3 4.4-6.5a3.1 3.1 0 0 0 .5-1l1.5-6.5c.1-.2-.1-.3-.2-.4s-2.9-1.5-4.2-2.4a30.7 30.7 0 0 1-3.6-2.7 36.8 36.8 0 0 1-5.9-7.6 4.3 4.3 0 0 1-.5-1.2.6.6 0 0 1 .2-.7c.1-.2.5-.2.7-.2h.4a32.3 32.3 0 0 1 10 7.2 29.3 29.3 0 0 1 3.4 4.4c0 .1.1.2.2.3a1.3 1.3 0 0 0 .1-.6c.1-1.5.2-3.1.2-4.6a50.9 50.9 0 0 0-.3-7.8.6.6 0 0 0-.5-.6l-4.8-1.8a28 28 0 0 1-9.8-6.5 8.9 8.9 0 0 1-1.6-2.2.9.9 0 0 1 .1-1.3.9.9 0 0 1 1.1 0l6.3 2.5a22.3 22.3 0 0 1 8 5.6l.3.2v-.3c-.3-1.1-.5-2.2-.8-3.3a6.6 6.6 0 0 0-.9-1.9l-1.1-1.5c-.8-1.2-1.5-2.5-2.2-3.8s-.4-.3-.7-.2a15.5 15.5 0 0 1-20-17.6 15.5 15.5 0 0 1 30.7 1.5 15.2 15.2 0 0 1-5.5 13.2.6.6 0 0 0-.2.7c.3 1.7.6 3.5.8 5.2s0 1.5.1 2.3l.9 4a38.2 38.2 0 0 1 1.4 7.5c0 .4.1.7.1 1.1s.1-.1.1-.2a42.5 42.5 0 0 1 5-11.1 5.6 5.6 0 0 0 .5-.8.9.9 0 0 1 1-.2.8.8 0 0 1 .3.9.4.4 0 0 1-.1.3 26 26 0 0 1-.5 3.9 29.2 29.2 0 0 1-3.4 9.5 6.5 6.5 0 0 1-2.5 2.7c-.3.1-.3.3-.3.6a38.9 38.9 0 0 1-1.1 9c-.2 1-.5 2.1-.8 3.3s.3-.3.3-.4L54.1 56a52.4 52.4 0 0 0 4.5-7.6c.1-.2.2-.4 0-.6s-1.5-2.1-2.3-3.2a35.1 35.1 0 0 1-4.4-7.5c-1-2.3-1.8-4.8-2.6-7.2a5.9 5.9 0 0 1-.5-2.7.8.8 0 0 1 .5-.8 1 1 0 0 1 .9.2l.9 1a32.5 32.5 0 0 1 4.6 6.4 44.6 44.6 0 0 1 3.7 9.1l.6 2.5c.1-.2.1-.3.2-.4 1.6-3.6 2.8-7.3 4.1-11a.6.6 0 0 0-.2-.7 27.2 27.2 0 0 1-2.9-3 32 32 0 0 1-3.2-5.7 42.5 42.5 0 0 1-3.7-11.6c-.1-.6-.1-1.3-.2-1.9a.8.8 0 0 1 .6-.8.7.7 0 0 1 .9.2l.7.8c1 1.6 2.1 3.1 3 4.6a59.9 59.9 0 0 1 5.4 12.8 10.9 10.9 0 0 0 .5 1.7 8.2 8.2 0 0 0 .3-4.1c-.2-1.8-.4-3.7-.5-5.6a31 31 0 0 1 .8-6.9 48.5 48.5 0 0 1 1.9-7.5l1.5-4.6c.2-.5.6-.8 1-.7a.8.8 0 0 1 .6.9c.1 1.2.1 2.3.2 3.5a54.7 54.7 0 0 1-.8 14 41.4 41.4 0 0 1-2.8 8.4 1.4 1.4 0 0 0-.2.6 69.4 69.4 0 0 1-2.6 9.2c-.1.1-.1.2-.1.4h.1l1.8-1.8 4.5-4.4c1.7-1.5 3.4-3 5.2-4.4l4.4-3.8c.2-.2.5-.3.6-.5s.8-.6 1.1-.3a.9.9 0 0 1 .1 1.3l-.4.6a59.3 59.3 0 0 1-4.3 7.8 16.8 16.8 0 0 1-3.5 4 22.8 22.8 0 0 1-10.5 4.7c-.1.1-.4.2-.4.4a71.2 71.2 0 0 1-5.4 11.1c0 .1-.1.1-.1.2h.3l4.1-1.4a53.5 53.5 0 0 1 10.5-2.5l4.8-.7A23.2 23.2 0 0 1 82 48c.4.1.7.2.8.6a.8.8 0 0 1-.4.9l-2.1 1.4a31.3 31.3 0 0 1-9.4 4.5A24.6 24.6 0 0 1 58 56a8.5 8.5 0 0 1-1.7-.6l-8 11.4.4-.2c2.1-.6 4.2-1.4 6.3-1.9a45.6 45.6 0 0 1 6.4-1.4c3.9-.7 7.8-.3 11.7-.6a.8.8 0 0 1 .8.7 1.1 1.1 0 0 1-.5.9 33.8 33.8 0 0 1-8.9 4A35.8 35.8 0 0 1 54.2 70a32.6 32.6 0 0 1-7.6-.7l-4.8 6.3h.7l3.3-.2a33.5 33.5 0 0 1 7.7 1.3 13.1 13.1 0 0 1 2.8.9c.4.1.7.4.6.8s-.3.6-.6.8H56a38.3 38.3 0 0 1-9 1.2 8.7 8.7 0 0 1-4.5-1l-2.6-1.2-.3.4c-1.2 1.8-2.3 3.7-3.6 5.6-2.6 4.1-5.4 8-7.8 12.2a.7.7 0 0 1-1 .4.9.9 0 0 1-.2-1.1c1.5-2.3 2.9-4.7 4.3-7s2.4-3.5 3.5-5.3l-.3-.2a18.6 18.6 0 0 1-2.7-2.2 36.5 36.5 0 0 1-3.5-4.3 37 37 0 0 1-4.5-9.4l-1.4-5a1 1 0 0 1 .4-1.1c.4-.2.7-.1 1.1.3s2.6 2.5 3.8 3.9a42.8 42.8 0 0 1 6.7 11.5 31.1 31.1 0 0 1 1.6 4.6zm7.8-67a14 14 0 1 0-7.8 20.1l-.5-1a31 31 0 0 1-1.5-6 34.9 34.9 0 0 1-.5-7.2 5 5 0 0 1 .2-1.2.7.7 0 0 1 .6-.7 1 1 0 0 1 1 .4 67.1 67.1 0 0 1 3.5 6.5 38.2 38.2 0 0 1 1.9 6c.1.1.1.2.1.4a13.8 13.8 0 0 0 3-17.3zM60.4 55a21.9 21.9 0 0 0 9.2-.8 28.6 28.6 0 0 0 9.6-4.3l.3-.2c-.4-.1-8.5 1.1-10.8 1.6a62.9 62.9 0 0 0-10.4 3.3zm10.1 9.3c-7.6-.5-14.6 1.3-21.6 3.9a36 36 0 0 0 21.6-3.9zm-45.7 1.1a38.3 38.3 0 0 0 2.7 7.1 31 31 0 0 0 4.9 7.1 13.7 13.7 0 0 0 1.8 1.6c.1-3.2-6.6-14.9-9.8-17.1a5 5 0 0 0 .4 1.3zm10.5-41.8a39.3 39.3 0 0 0 1.6 8.3 24.4 24.4 0 0 0 1.4 2.8c.6 1.3 1.3 2.6 2 3.8l.6 1c.2-1-.7-6.2-1.7-9.7a33.5 33.5 0 0 0-3.9-8.9h-.1a23.5 23.5 0 0 0 .1 2.7zm30.1 15.9h.2a22.6 22.6 0 0 0 7.4-3.8 14.8 14.8 0 0 0 3.3-3.8c1.1-1.6 2-3.2 3-4.9.1-.1.1-.2.2-.4a123.3 123.3 0 0 0-14.1 12.9zm4.1-33.7c-.1.1-.1.3-.2.5a47.6 47.6 0 0 0-2 7.4 37.2 37.2 0 0 0-.8 7.4c0 1.4.2 2.8.3 4.3h.1a43.6 43.6 0 0 0 2.6-19.6zM56.4 16.3a49.3 49.3 0 0 0 4.2 10.4 20.4 20.4 0 0 0 2.6 3.9l.5.6a49.6 49.6 0 0 0-7.9-17.7 23 23 0 0 0 .6 2.8zM42 64.8c-.4-2.3-7.7-9.1-11.2-10.5A26.4 26.4 0 0 0 42 64.8zm16.3-20.2a37.6 37.6 0 0 0-7.7-15.3c.9 4.5 4.8 12.3 7.7 15.3zm-24.3.2a38 38 0 0 0 7.7 3.5 17.9 17.9 0 0 0-4.3-3.9 42.6 42.6 0 0 0-8.9-4.2 26.9 26.9 0 0 0 5.5 4.6zm14.3 34.1l5-.6h.2c-1.7-1-10.2-1.7-12.1-1a10 10 0 0 0 6.9 1.6zm-2.4-22.7a27.4 27.4 0 0 0 4-10.6 34.1 34.1 0 0 0-4 10.6z"/></svg>