<svg xmlns="http://www.w3.org/2000/svg" width="16" height="16" viewBox="0 0 16 16"><path fill="#fff" d="M16 18H-.3V-2.2H16zm-6.2-5.2a3.6 3.6 0 0 1-.7-1H9c-.1-.3-.1-.7-.2-1l.7-.4.5-.4.9-1.2h.1v-.5h-.1a4.2 4.2 0 0 0-1.6 1.1l-.6.7v-.8a4.8 4.8 0 0 1 0-1.2h.1l.7-.3a4 4 0 0 0 1.5-1l.2-.3c.1-.1.1-.2 0-.2h-.1l-1 .3a2.7 2.7 0 0 0-1.2.9A.9.9 0 0 1 9 7a.4.4 0 0 1 .1-.3c.1-.1.1-.2.2-.2l.3-.6s.1-.1.1 0h1.1a2.2 2.2 0 0 0 1.9-2.7A2.3 2.3 0 0 0 10 1.3a2.4 2.4 0 0 0-1.9 2.1 2.2 2.2 0 0 0 .8 2H9c-.1.3-.1.6-.2.8v.4c0 .2-.1.4-.1.6a3.6 3.6 0 0 0-.2 1.1v.2h-.1a4.6 4.6 0 0 0-.7-1.6c0-.1-.1-.1-.1-.2h-.2c0 .2.1.4.1.6A5.8 5.8 0 0 0 8 8.9l.4.4a6.8 6.8 0 0 0 .2 1.4 4.3 4.3 0 0 1 .1.5 18.8 18.8 0 0 1-1.6-2.3 4.1 4.1 0 0 1-.7-1.1l.3-.5a4.1 4.1 0 0 0 .7-1.1A4.9 4.9 0 0 0 7.8 5c0-.1.1-.3.1-.4h-.4l-.7 1A5.8 5.8 0 0 0 6.3 7c-.1.1-.1.2-.1.4s0-.1-.1-.1l-.6-1.7h.1l.4-.5.5-.9A4.8 4.8 0 0 0 7 2.5a.4.4 0 0 0 .1-.3.1.1 0 0 0-.1-.1c-.1-.1-.1-.1-.2 0a.1.1 0 0 1-.1.1l-.4.7a7.7 7.7 0 0 0-.8 1.9.4.4 0 0 0-.1.3 1.3 1.3 0 0 1-.1-.6 2.8 2.8 0 0 0 .1-.9 3.4 3.4 0 0 0-.1-1L5 1.5a6.4 6.4 0 0 0-.2-.7c0-.1-.1-.2-.2-.1a.1.1 0 0 0-.1.1v.5a14.8 14.8 0 0 0 .1 2.1 5 5 0 0 0 .5 1.3 7.4 7.4 0 0 0 .4 1.4L5.2 6l-.7-.7-.8-.7-.6-.5H3c-.1-.1-.1-.1-.2 0 0 .1 0 .1.1.1a6.7 6.7 0 0 0 .6 1.2L4 6a3.3 3.3 0 0 0 1.6.7h.1a13 13 0 0 0 .8 1.7l-.6-.2-1.6-.3H2.7c0 .1 0 .1.1.2l.3.2a3.5 3.5 0 0 0 1.4.6 3.4 3.4 0 0 0 2 .1h.2l1.2 1.8-1-.3L6 10H4.1c0 .1 0 .2.1.2a3.1 3.1 0 0 0 1.3.6A3.9 3.9 0 0 0 7 11a2.5 2.5 0 0 0 1.2-.1l.7 1h-.6l-1.1.2h-.4l1.3.2h.7l.4-.2h.1a4.1 4.1 0 0 0 .5.9l1.2 2h.1c.1 0 .1-.1.1-.2a6.1 6.1 0 0 1-.7-1 5.6 5.6 0 0 0-.5-.8l.4-.3.6-.6a4.7 4.7 0 0 0 .6-1.5l.3-.7v-.2h-.2c-.2.2-.4.3-.5.6a6.2 6.2 0 0 0-1.2 1.8 6.4 6.4 0 0 0-.2.7z"/><path d="M9.8 12.8a6.4 6.4 0 0 1 .2-.7 6.2 6.2 0 0 1 1.1-1.7c.1-.3.3-.4.5-.6h.2v.2l-.3.7a4.7 4.7 0 0 1-.6 1.5l-.6.6-.3.2a5.6 5.6 0 0 1 .5.8 6.1 6.1 0 0 0 .7 1c0 .1 0 .2-.1.2H11l-1.2-1.8a4.1 4.1 0 0 1-.5-.9h-.1l-.4.2h-.7l-1.3-.2h.4l1.1-.2h.6l-.7-1A2.5 2.5 0 0 1 7 11a3.9 3.9 0 0 1-1.5-.2 3.1 3.1 0 0 1-1.3-.6c-.1 0-.1-.1-.1-.2H6l.9.2 1 .3-1.2-1.7h-.2a3.4 3.4 0 0 1-2-.1 3.5 3.5 0 0 1-1.4-.6L2.8 8c-.1-.1-.1-.1-.1-.2h1.6l1.6.4.6.2a13 13 0 0 1-.8-1.7h-.1A3.3 3.3 0 0 1 4 6l-.5-.6a6.7 6.7 0 0 1-.6-1.2c-.1 0-.1 0-.1-.1.1-.1.1-.1.2 0h.1l.6.5.8.7.7.7.3.2a7.4 7.4 0 0 1-.4-1.4 5 5 0 0 1-.5-1.3 14.8 14.8 0 0 1-.1-2.1V.8a.1.1 0 0 1 .1-.1c.1-.1.2 0 .2.1a6.4 6.4 0 0 1 .2.7l.3 1.1a3.4 3.4 0 0 1 .1 1 2.8 2.8 0 0 1-.1.9 1.3 1.3 0 0 0 .1.6.4.4 0 0 1 .1-.3 7.7 7.7 0 0 1 .8-1.9l.4-.7a.1.1 0 0 0 .1-.1c.1-.1.1-.1.2 0a.1.1 0 0 1 .1.1.4.4 0 0 1-.1.3 4.8 4.8 0 0 1-.5 1.7l-.5.9-.4.4h-.1l.6 1.7c.1 0 .1 0 .1.1s0-.3.1-.4a5.8 5.8 0 0 1 .5-1.4l.7-1h.4c0 .1-.1.3-.1.4A4.9 4.9 0 0 1 7.4 6a4.1 4.1 0 0 1-.7 1.1l-.3.5a4.1 4.1 0 0 0 .7 1.1A18.8 18.8 0 0 0 8.7 11a4.3 4.3 0 0 0-.1-.5 6.8 6.8 0 0 1-.2-1.4L8 8.9a5.8 5.8 0 0 1-.5-1.4c0-.2-.1-.4-.1-.6h.2c0 .1.1.1.1.2a4.6 4.6 0 0 1 .7 1.6h.1v-.3a3.6 3.6 0 0 1 .2-1.1c0-.2.1-.4.1-.6v-.4c.1-.2.1-.5.2-.8h-.1a2.2 2.2 0 0 1-.8-2A2.4 2.4 0 0 1 10 1.3a2.3 2.3 0 0 1 2.7 1.9 2.2 2.2 0 0 1-1.9 2.7H9.7c0-.1-.1 0-.1 0l-.3.6c-.1 0-.1.1-.2.2A.4.4 0 0 0 9 7a.9.9 0 0 0-.1.5 2.7 2.7 0 0 1 1.2-.9l1-.3h.1c.1 0 .1.1 0 .2l-.2.3a4 4 0 0 1-1.5 1l-.7.3h-.1a4.8 4.8 0 0 0 0 1.2v.7l.6-.7a4.2 4.2 0 0 1 1.5-1.1h.1v.2h-.1L10 9.8l-.5.4-.7.4c.1.3.1.7.2 1h.1a3.6 3.6 0 0 0 .7 1zM9 5.2l.3-1 .6-.9h.2v1.3l-.3.9a2 2 0 0 0 2.6-1.1 2.3 2.3 0 0 0-1-2.8 2.1 2.1 0 0 0-2.8.9A2.1 2.1 0 0 0 9 5.2zM6.4 8.7l-1.5-.5L3.2 8h.1a6.1 6.1 0 0 0 1.4.7h1.7zm1.4 2.1a7 7 0 0 0-3.2-.6 5.9 5.9 0 0 0 3.2.6zm3.8-.6a6 6 0 0 0-1.5 2.5l.2-.2a4.4 4.4 0 0 0 .8-1.1 4.2 4.2 0 0 0 .4-1c0-.1 0-.2.1-.2zM9.9 3.6A4.2 4.2 0 0 0 9.3 5a4.5 4.5 0 0 0-.2 1.4 2.1 2.1 0 0 0 .4-.6.8.8 0 0 1 .2-.4A5.1 5.1 0 0 0 9.9 4zm-6.7.9h.1l.4.7.5.6 1.1.5h.1zm1.9-.2h.1v-.6c0-.4-.1-.8-.1-1.2l-.3-1.1h-.1a9.9 9.9 0 0 0 .4 2.9zm1.7-1.8a8.3 8.3 0 0 0-1.2 2.7h.1a2.1 2.1 0 0 0 .4-.6A7.6 7.6 0 0 0 6.7 3c.1-.2.1-.3.1-.5zm3.8 6.2a4.4 4.4 0 0 0-1.7 1.6 4.4 4.4 0 0 0 1.7-1.6zm-3-3.8a7.2 7.2 0 0 0-1.2 2.3 4.6 4.6 0 0 0 1.2-2.3zm3.3 1.6l-1.3.7a1.3 1.3 0 0 0-.7.6l1.2-.6a2.7 2.7 0 0 0 .8-.7zM9 12.1a3.6 3.6 0 0 0-1.8.2h.7a1.4 1.4 0 0 0 1.1-.2zM7.7 7.4A5.2 5.2 0 0 0 8.3 9a4.4 4.4 0 0 0-.6-1.6z"/><path fill="#fff" d="M9 5.2a2.1 2.1 0 0 1-.4-2.6 2.1 2.1 0 0 1 2.8-.9 2.3 2.3 0 0 1 1 2.8 2 2 0 0 1-2.6 1.1l.3-.9V3.3h-.2l-.6.9-.3 1zM6.4 8.7H4.7A6.1 6.1 0 0 1 3.3 8h-.1l1.7.2zm1.4 2.1a5.9 5.9 0 0 1-3.2-.6 7 7 0 0 1 3.2.6zm3.8-.6c-.1 0-.1.1-.1.2a4.2 4.2 0 0 1-.4 1 4.4 4.4 0 0 1-.8 1.1l-.2.2a6 6 0 0 1 1.5-2.5z"/><path fill="#fff" d="M9.9 3.6V4a5.1 5.1 0 0 1-.2 1.3.8.8 0 0 0-.2.4 2.1 2.1 0 0 1-.4.6A4.5 4.5 0 0 1 9.3 5a4.2 4.2 0 0 1 .6-1.4zm-6.7.9l2.2 1.9h-.1l-1.1-.5-.5-.6-.4-.7zm1.9-.2a9.9 9.9 0 0 1-.4-3h.1l.3 1.1c0 .4.1.8.1 1.2v.6zm1.7-1.8c0 .2 0 .3-.1.4a7.6 7.6 0 0 1-.6 1.6 2.1 2.1 0 0 1-.4.6h-.1a8.3 8.3 0 0 1 1.2-2.6zm3.8 6.2a4.4 4.4 0 0 1-1.7 1.6 4.4 4.4 0 0 1 1.7-1.6zm-3-3.8a4.6 4.6 0 0 1-1.2 2.3 7.2 7.2 0 0 1 1.2-2.3zm3.3 1.6a2.7 2.7 0 0 1-.8.7l-1.2.6a1.3 1.3 0 0 1 .7-.6zM9 12.1a1.4 1.4 0 0 1-1.1.3h-.7a3.6 3.6 0 0 1 1.8-.3zM7.7 7.4A4.4 4.4 0 0 1 8.3 9a5.2 5.2 0 0 1-.6-1.6z"/></svg>