<svg xmlns="http://www.w3.org/2000/svg" width="32" height="32" viewBox="0 0 32 32"><path d="M20.5 26.2a8.8 8.8 0 0 1 .5-1.5 11.3 11.3 0 0 1 2.2-3.6l1.2-1.2h.4c.1.1.2.2.1.4s-.3 1-.4 1.5a10.5 10.5 0 0 1-1.5 3L21.9 26l-1 .7h-.1l1.2 1.7 1.4 2.2c.1.2.1.3-.1.4H23l-2.6-4a16.3 16.3 0 0 1-1.1-1.7v-.2l-.9.4a2.5 2.5 0 0 1-1.5.3 15.3 15.3 0 0 1-3-.3c-.2 0-.2-.1-.2-.2s0-.2.1-.3l1-.2a10.9 10.9 0 0 1 2.5-.4h1.3l-1.6-2-2.6.2a14 14 0 0 1-3.4-.5 10.8 10.8 0 0 1-2.9-1.3.4.4 0 0 1-.1-.3.2.2 0 0 1 .2-.2 25.5 25.5 0 0 1 3.9.2l2.1.4 2.1.6h.1L13.8 18l-.6.2a9 9 0 0 1-4.3-.2 8.3 8.3 0 0 1-3-1.4l-.7-.5c-.2 0-.2-.1-.2-.2s.2-.2.3-.2h1.5l1.6.2a22.1 22.1 0 0 1 3.5.8l1.3.5h.1a23.1 23.1 0 0 1-1.8-3.5h-.2a7.4 7.4 0 0 1-3.4-1.5A6.8 6.8 0 0 1 6.7 11a20.1 20.1 0 0 1-1.4-2.6h-.1a.4.4 0 0 1 0-.5h.4l.2.2 1.4 1.2L9 10.7l1.4 1.3.6.6c-.3-1-.6-1.9-.8-2.9v-.3a11.4 11.4 0 0 1-.9-2.6A16.3 16.3 0 0 1 9 2.4c0-.4.1-.7.1-1.1s.1-.3.2-.3l.3.2.4 1.5a8.6 8.6 0 0 1 .6 2.3 7.8 7.8 0 0 1 .3 2.2 11 11 0 0 1-.2 1.8 4.9 4.9 0 0 0 .1 1.2l.2-.5a15.9 15.9 0 0 1 1.8-4 13 13 0 0 1 1-1.5c0-.1.1-.1.2-.2h.3c.1.1.2.2.2.3a1.3 1.3 0 0 1-.1.6 12.7 12.7 0 0 1-1.2 3.6 17.4 17.4 0 0 1-1.1 1.8 7.6 7.6 0 0 1-.9.9c-.1.1-.1.1-.1.2a21.3 21.3 0 0 0 1.4 3.5h.1c0-.2.1-.5.1-.7a10.8 10.8 0 0 1 1.3-2.9 9.5 9.5 0 0 1 1.5-2l.3-.3h.3a.4.4 0 0 1 .1.3 1.1 1.1 0 0 1-.1.8 21.8 21.8 0 0 1-.9 2.3 10.9 10.9 0 0 1-1.4 2.3l-.8 1c-.1.1 0 .1 0 .2a15.8 15.8 0 0 0 1.5 2.4l3.5 4.6a.1.1 0 0 0 .1.1l-.3-1a13.3 13.3 0 0 1-.3-2.8c0-.1 0-.2-.1-.2a3.4 3.4 0 0 1-.9-.8 12.1 12.1 0 0 1-1.1-3c0-.4-.1-.8-.1-1.2h-.1c0-.2.1-.3.2-.3s.2 0 .3.1v.2a14.2 14.2 0 0 1 1.7 3.5v-.3a20.5 20.5 0 0 1 .5-2.4l.3-1.2v-.7l.3-1.7V11a4.8 4.8 0 0 1-1.8-4.1 5.1 5.1 0 0 1 10.1-.5 4.9 4.9 0 0 1-4.1 5.6 4.9 4.9 0 0 1-2.4-.2H20l-.7 1.2-.3.4a1.6 1.6 0 0 0-.4.7 4.4 4.4 0 0 1-.2 1c0-.1 0-.1.1-.1a8.1 8.1 0 0 1 2.6-1.8l2.1-.7h.4a.3.3 0 0 1 0 .4l-.5.7a10.1 10.1 0 0 1-3.3 2l-1.6.6c-.1 0-.1.1-.1.2A9.7 9.7 0 0 0 18 19v1.4a.3.3 0 0 0 .1.2h.1a6.9 6.9 0 0 1 1.1-1.3 9.8 9.8 0 0 1 3.3-2.3h.3a.4.4 0 0 1 .1.3c0 .1-.1.2-.2.4a10.1 10.1 0 0 1-1.9 2.3 9.4 9.4 0 0 1-1.2.9 6.1 6.1 0 0 1-1.4.7c0 .1-.1.1-.1.2a11.7 11.7 0 0 1 .5 2l.2.3 1.5 2.1zm-1.7-15.7v-.2l.6-1.8 1.2-2.1h.3c.2 0 .2.1.2.2s.1.3.1.4a7.8 7.8 0 0 1-.2 2.1 5.9 5.9 0 0 1-.5 1.9v.4A4.7 4.7 0 0 0 26 9a4.2 4.2 0 0 0-2.1-5.7 4.7 4.7 0 0 0-6.1 1.8 4.1 4.1 0 0 0 1 5.4zm-5.7 7.2a21.9 21.9 0 0 0-3.4-1l-3.6-.5h.1a12.7 12.7 0 0 0 3.2 1.3 7.7 7.7 0 0 0 3 .3zm3.1 4.3a17.1 17.1 0 0 0-7.1-1.2 12.4 12.4 0 0 0 7.1 1.2zm8.1-1.3c-1.1.7-3.3 4.4-3.3 5.4s.5-.3.6-.5a11.8 11.8 0 0 0 1.7-2.2 21.8 21.8 0 0 0 .9-2.3.8.8 0 0 1 .1-.4zM20.7 7.2a10.2 10.2 0 0 0-1.3 2.8 21.8 21.8 0 0 0-.6 3c.1-.1.2-.2.2-.3a7.5 7.5 0 0 0 .7-1.2l.5-.9a10.9 10.9 0 0 0 .5-2.6zM6.1 9h.1l1 1.5a2.9 2.9 0 0 0 1 1.2 8.2 8.2 0 0 0 2.5 1.3h.1a30.1 30.1 0 0 0-4.7-4zm4.2-.4c0-.5.1-.9.1-1.4a9.7 9.7 0 0 0-.3-2.3 19.5 19.5 0 0 0-.6-2.3c0-.1-.1-.1-.1-.2a13.2 13.2 0 0 0 .9 6.2zm3.6-3.7a17.4 17.4 0 0 0-2.6 5.5l.2-.2a5.4 5.4 0 0 0 .9-1.2 12 12 0 0 0 1.3-3.3 1.9 1.9 0 0 0 .2-.8zm8.3 12.8c-1.2.4-3.6 2.5-3.7 3.3a9.1 9.1 0 0 0 3.7-3.3zm-6.6-7.9a13 13 0 0 0-2.5 4.8 10.6 10.6 0 0 0 2.5-4.8zm7.3 3.4L20 14.5a5.8 5.8 0 0 0-1.4 1.3 13.6 13.6 0 0 0 2.5-1.1 9 9 0 0 0 1.8-1.5zm-4.2 11.6a9.1 9.1 0 0 0-4 .4l1.7.2a3.8 3.8 0 0 0 2.3-.6zm-2.8-9.9a7.9 7.9 0 0 0 1.3 3.3 15.1 15.1 0 0 0-1.3-3.3z"/></svg>