<svg id="Layer_1" data-name="Layer 1" xmlns="http://www.w3.org/2000/svg" width="100" height="100" viewBox="0 0 100 100"><title>logo</title><path d="M63.2,82.5a31.1,31.1,0,0,1,1.6-4.6,42.8,42.8,0,0,1,6.7-11.5c1.2-1.4,2.5-2.6,3.8-3.9s.8-.5,1.1-.3a1,1,0,0,1,.4,1.1l-1.4,5a37,37,0,0,1-4.5,9.4A35.7,35.7,0,0,1,67.5,82a19.3,19.3,0,0,1-2.8,2.2l-.3.2c1.2,1.8,2.4,3.5,3.5,5.3l4.3,7a.7.7,0,0,1-.2,1.1.7.7,0,0,1-1-.4c-2.4-4.2-5.2-8.1-7.8-12.2l-3.6-5.6-.3-.4-2.5,1.2a9.3,9.3,0,0,1-4.6,1,38.3,38.3,0,0,1-9-1.2h-.3c-.3-.2-.6-.4-.6-.8a.8.8,0,0,1,.6-.8,13.1,13.1,0,0,1,2.8-.9,33.5,33.5,0,0,1,7.7-1.3l3.4.2h.6l-4.8-6.3A32.1,32.1,0,0,1,45,71a35.8,35.8,0,0,1-10.3-1.7,31.8,31.8,0,0,1-8.8-4,.8.8,0,0,1-.5-.9.7.7,0,0,1,.7-.7c3.9.3,7.9-.1,11.8.6a47.5,47.5,0,0,1,6.3,1.4c2.1.5,4.2,1.3,6.3,1.9l.4.2-8-11.4a8.5,8.5,0,0,1-1.7.6,24.6,24.6,0,0,1-12.9-.6,31.3,31.3,0,0,1-9.4-4.5c-.6-.5-1.4-.9-2.1-1.4a.8.8,0,0,1-.4-.9c.1-.4.4-.5.8-.6a23.2,23.2,0,0,1,4.6.4l4.8.7a53.5,53.5,0,0,1,10.5,2.5L41.2,54h.3c0-.1,0-.1-.1-.2A71.2,71.2,0,0,1,36,42.8c0-.2-.2-.3-.4-.4a22.8,22.8,0,0,1-10.5-4.7,16.8,16.8,0,0,1-3.5-4,59.3,59.3,0,0,1-4.3-7.8l-.4-.6A.9.9,0,0,1,17,24c.3-.3.7-.1,1.1.3l.6.5,4.5,3.8c1.7,1.4,3.5,2.9,5.1,4.4s3,2.9,4.5,4.4l1.9,1.8h0c0-.2,0-.3-.1-.4a56.7,56.7,0,0,1-2.5-9.2l-.3-.6a41.2,41.2,0,0,1-2.7-8.4,54.7,54.7,0,0,1-.9-14c.1-1.2.1-2.3.2-3.5a.9.9,0,0,1,.6-.9c.4-.1.8.2,1,.7l1.5,4.6a48.8,48.8,0,0,1,2,7.5,38.4,38.4,0,0,1,.7,6.9c-.1,1.9-.3,3.8-.5,5.6a8.2,8.2,0,0,0,.3,4.1,10.9,10.9,0,0,0,.5-1.7,59.9,59.9,0,0,1,5.4-12.8c.9-1.5,2-3,3-4.6l.7-.8a.9.9,0,0,1,1.5.6c0,.6-.1,1.3-.1,1.9a46.2,46.2,0,0,1-3.7,11.6A40.3,40.3,0,0,1,38,31.5a27.2,27.2,0,0,1-2.9,3,.6.6,0,0,0-.2.7c1.3,3.7,2.5,7.4,4.1,11l.3.4c.2-.9.3-1.7.5-2.5A44.6,44.6,0,0,1,43.5,35a32.5,32.5,0,0,1,4.6-6.4,4.7,4.7,0,0,1,1-1,.8.8,0,0,1,.8-.2,1.2,1.2,0,0,1,.6.8,7.6,7.6,0,0,1-.6,2.7c-.8,2.4-1.6,4.9-2.5,7.2a40.3,40.3,0,0,1-4.5,7.5c-.8,1.1-1.5,2.2-2.3,3.2a.6.6,0,0,0,0,.6A52.4,52.4,0,0,0,45.1,57L55.8,72.1c0,.1.1.2.3.4s-.6-2.3-.8-3.3a34.1,34.1,0,0,1-1-9,.5.5,0,0,0-.4-.6,6.5,6.5,0,0,1-2.5-2.7A29.2,29.2,0,0,1,48,47.4c-.2-1.3-.4-2.6-.5-3.9s-.1-.2-.1-.3a.7.7,0,0,1,.4-.9.8.8,0,0,1,.9.2,5.6,5.6,0,0,0,.5.8,42.5,42.5,0,0,1,5,11.1c0,.1,0,.1.1.2a4.1,4.1,0,0,0,.1-1.1A38.2,38.2,0,0,1,55.8,46l.9-4c.1-.8,0-1.5.1-2.3l.9-5.2a.9.9,0,0,0-.3-.7,15.2,15.2,0,0,1-5.5-13.2A15.5,15.5,0,1,1,62.6,36.7c-.3-.1-.5-.1-.6.2s-1.5,2.6-2.3,3.8l-1,1.5a5,5,0,0,0-1,1.9c-.3,1.1-.5,2.2-.8,3.3v.3l.3-.2a22.3,22.3,0,0,1,8-5.6l6.3-2.5c.4-.2.8-.3,1.1,0a1.1,1.1,0,0,1,.2,1.3,9.2,9.2,0,0,1-1.7,2.2,27.1,27.1,0,0,1-9.8,6.5l-4.8,1.8c-.3.1-.4.3-.5.6a67.8,67.8,0,0,0-.3,7.8c0,1.5.1,3.1.2,4.6s.1.4.1.6l.2-.3a29.3,29.3,0,0,1,3.4-4.3,32.3,32.3,0,0,1,10-7.2H70c.2,0,.6,0,.7.2a.6.6,0,0,1,.2.7,4.3,4.3,0,0,1-.5,1.2,36.8,36.8,0,0,1-5.9,7.6,24.2,24.2,0,0,1-3.6,2.7c-1.3.9-2.8,1.6-4.1,2.4s-.3.2-.3.4L58,74.6a3.1,3.1,0,0,0,.5,1L63,82.1A.8.8,0,0,0,63.2,82.5ZM58.1,32.4c0-.2.1-.3.1-.4a30.2,30.2,0,0,1,2-6,50.1,50.1,0,0,1,3.4-6.5,1.1,1.1,0,0,1,1-.4.7.7,0,0,1,.6.7,5,5,0,0,1,.2,1.2,29.1,29.1,0,0,1-.5,7.2,31,31,0,0,1-1.5,6l-.4,1a14,14,0,1,0-4.9-2.8ZM40.9,55.6a62.9,62.9,0,0,0-10.4-3.3c-2.2-.5-10.4-1.7-10.8-1.6a.5.5,0,0,0,.4.2,27.3,27.3,0,0,0,9.5,4.3,22,22,0,0,0,9.2.8Zm9.4,13.6c-6.9-2.6-14-4.4-21.6-3.9A36.1,36.1,0,0,0,50.3,69.2Zm24.5-4.1C71.6,67.3,64.9,79,65,82.2a13.7,13.7,0,0,0,1.8-1.6,31,31,0,0,0,4.9-7.1,47.6,47.6,0,0,0,2.8-7.1ZM64,22h-.1A33.5,33.5,0,0,0,60,30.8c-1,3.5-1.9,8.7-1.7,9.7l.6-1L61,35.7a23.9,23.9,0,0,0,1.3-2.8,33.9,33.9,0,0,0,1.6-8.3A23.5,23.5,0,0,0,64,22ZM19.7,27.6l.2.4,3,4.9a17,17,0,0,0,3.3,3.8,22.6,22.6,0,0,0,7.4,3.8h.2A123.3,123.3,0,0,0,19.7,27.6Zm12.6-1.2h.1a32.2,32.2,0,0,0,.3-4.3,31.1,31.1,0,0,0-.8-7.4,47.6,47.6,0,0,0-2-7.4.8.8,0,0,0-.2-.5A45.1,45.1,0,0,0,32.3,26.4ZM43.4,14.5a51.4,51.4,0,0,0-7.9,17.7l.5-.6a27,27,0,0,0,2.7-3.9,48.9,48.9,0,0,0,4.1-10.4A23,23,0,0,0,43.4,14.5Zm25,40.8c-3.5,1.4-10.8,8.2-11.2,10.5A25.8,25.8,0,0,0,68.4,55.3Zm-19.8-25A36.2,36.2,0,0,0,41,45.6C43.9,42.6,47.7,34.8,48.6,30.3ZM70.7,41.2a42.6,42.6,0,0,0-8.9,4.2,17.9,17.9,0,0,0-4.3,3.9c2.6-1,5.4-1.9,7.7-3.5A24.5,24.5,0,0,0,70.7,41.2Zm-12.9,37c-1.8-.7-10.3,0-12.1,1h.2l5,.6A10,10,0,0,0,57.8,78.2ZM49.4,46.6a27.2,27.2,0,0,0,3.9,10.6A36.5,36.5,0,0,0,49.4,46.6Z"/></svg>