<svg xmlns="http://www.w3.org/2000/svg" width="32" height="32" viewBox="0 0 32 32"><path fill="#fff" d="M32.7 36.5H0V-4h32.7zM20.3 26h-.1l-1.3-2-.2-.4c-.1-.6-.3-1.3-.4-1.9h.1l1.2-.8 1.1-.8a10.2 10.2 0 0 0 1.8-2.3c0-.1.1-.2.1-.3v-.3h-.4a10.5 10.5 0 0 0-3 2.2 6.4 6.4 0 0 0-1 1.3h-.1v-.2c0-.5-.1-.9-.1-1.4a19.3 19.3 0 0 1 .1-2.4h.2l1.4-.6a8.5 8.5 0 0 0 3-1.9l.5-.7a.3.3 0 0 0 0-.4h-.4l-1.9.7a8.1 8.1 0 0 0-2.4 1.7h-.1a3.6 3.6 0 0 0 .2-1l.3-.6.3-.4a7.5 7.5 0 0 0 .7-1.2h.2a6 6 0 0 0 2.3.1 4.7 4.7 0 0 0 3.8-5.5 4.7 4.7 0 0 0-9.3.5 4.7 4.7 0 0 0 1.6 4c.1 0 .1.1.1.2a8.8 8.8 0 0 0-.2 1.6c-.1.2 0 .4-.1.7s-.2.8-.2 1.2a15.5 15.5 0 0 0-.5 2.3v.3a16.6 16.6 0 0 0-1.5-3.3l-.2-.3h-.3c-.1 0-.1.1-.1.2.1.4.1.8.2 1.2a10 10 0 0 0 1 2.9 3 3 0 0 0 .8.8c.1 0 .1.1.1.2a12.4 12.4 0 0 0 .3 2.7 3 3 0 0 1 .2 1l-3.3-4.6a10.5 10.5 0 0 1-1.3-2.5c-.1 0-.1-.1 0-.2l.6-.9a7.9 7.9 0 0 0 1.4-2.3c.3-.7.5-1.4.8-2.2a1.1 1.1 0 0 0 .1-.8c0-.1 0-.2-.1-.2H16l-.3.3a14.3 14.3 0 0 0-1.4 2 21.8 21.8 0 0 0-1.1 2.7c0 .3-.1.5-.1.8V15a32.4 32.4 0 0 1-1.3-3.3v-.2l.9-.9 1-1.7a15.7 15.7 0 0 0 1.1-3.5v-.6a.4.4 0 0 0-.1-.3h-.3l-.2.2-.9 1.4a16.5 16.5 0 0 0-1.7 3.9c0 .2-.1.3-.1.5a1.7 1.7 0 0 1-.1-1.2c0-.6.1-1.1.1-1.7a14.9 14.9 0 0 0-.2-2.1 19.5 19.5 0 0 0-.6-2.3 12.1 12.1 0 0 0-.5-1.4l-.2-.1c-.2 0-.2.1-.2.3a3.8 3.8 0 0 0-.1 1 15.3 15.3 0 0 0 .3 4.3 7.3 7.3 0 0 0 .8 2.5v.2a12.9 12.9 0 0 0 .8 2.8l-.6-.5-1.3-1.2-1.5-1.4-1.4-1.1-.2-.2c-.1-.1-.2-.2-.3-.1a.3.3 0 0 0 0 .4c0 .1.1.1.1.2a17.1 17.1 0 0 0 1.3 2.3 6.9 6.9 0 0 0 1.1 1.3 7.3 7.3 0 0 0 3.1 1.4h.2a21.1 21.1 0 0 0 1.6 3.4h-.1l-1.2-.3a16.7 16.7 0 0 0-3.2-.8L7.8 16H6.4l-.3.2.2.2.6.5a10.2 10.2 0 0 0 2.8 1.3 7.7 7.7 0 0 0 4 .2l.5-.2 2.4 3.5a.1.1 0 0 1-.1-.1l-2-.6-1.9-.4c-1.2-.2-2.3-.1-3.5-.2s-.2.1-.3.3l.2.2a8.4 8.4 0 0 0 2.7 1.3 15.4 15.4 0 0 0 3.1.5 9.1 9.1 0 0 0 2.3-.3l1.4 1.9h-1.2a10.1 10.1 0 0 0-2.3.4l-.9.2a.4.4 0 0 0-.1.3l.2.2a12.6 12.6 0 0 0 2.8.4l1.4-.3.7-.4a.1.1 0 0 0 .1.1l1.1 1.8 2.4 3.7h.3c.1-.1.1-.2 0-.4a23.9 23.9 0 0 0-1.3-2.1c-.3-.5-.7-1-1-1.6h.1a5 5 0 0 1 .8-.7 11.3 11.3 0 0 0 1-1.3 9.7 9.7 0 0 0 1.4-2.9c.1-.5.3-1 .4-1.5a.2.2 0 0 0-.1-.3c-.1-.1-.2 0-.3.1l-1.2 1.2a11.7 11.7 0 0 0-2 3.4c-.2.5-.3 1-.5 1.4z"/><path d="M20.3 26c.2-.4.3-.9.5-1.4a11.7 11.7 0 0 1 2-3.4L24 20c.1-.1.2-.2.3-.1a.2.2 0 0 1 .1.3c-.1.5-.3 1-.4 1.5a9.7 9.7 0 0 1-1.4 2.9 11.3 11.3 0 0 1-1 1.3 5 5 0 0 0-.8.7h-.1c.3.6.7 1.1 1 1.6a23.9 23.9 0 0 1 1.3 2.1c.1.2.1.3 0 .4h-.3L20.3 27l-1.1-1.8a.1.1 0 0 1-.1-.1l-.7.4-1.4.3a12.6 12.6 0 0 1-2.8-.4l-.2-.2a.4.4 0 0 1 .1-.3l.9-.2a10.1 10.1 0 0 1 2.3-.4h1.2l-1.4-1.9a9.1 9.1 0 0 1-2.3.3 15.4 15.4 0 0 1-3.1-.5A8.4 8.4 0 0 1 9 20.8l-.2-.2c.1-.2.1-.3.3-.3s2.3 0 3.5.2l1.9.4 2 .6a.1.1 0 0 0 .1.1l-2.4-3.5-.5.2a7.7 7.7 0 0 1-4-.2 10.2 10.2 0 0 1-2.8-1.3l-.6-.5-.2-.2.3-.2h1.4l1.4.2a16.7 16.7 0 0 1 3.2.8l1.2.4h.1a21.1 21.1 0 0 1-1.6-3.3h-.2a7.3 7.3 0 0 1-3.1-1.4 6.9 6.9 0 0 1-1.1-1.3 17.1 17.1 0 0 1-1.3-2.4c0-.1-.1-.1-.1-.2a.3.3 0 0 1 0-.4c.1-.1.2 0 .3.1l.2.2 1.4 1.1 1.5 1.4 1.4 1.3.6.5a12.9 12.9 0 0 1-.8-2.8v-.3a7.3 7.3 0 0 1-.9-2.5A15.3 15.3 0 0 1 9.7 3a3.8 3.8 0 0 1 .1-1c0-.2 0-.3.2-.3l.2.2a12.1 12.1 0 0 1 .5 1.4 19.5 19.5 0 0 1 .6 2.3 14.9 14.9 0 0 1 .2 2.1c0 .6-.1 1.1-.1 1.7a1.7 1.7 0 0 0 .1 1.2c0-.2.1-.3.1-.5a16.5 16.5 0 0 1 1.7-3.9l.9-1.4.2-.2h.3a.4.4 0 0 1 .1.3v.6A15.7 15.7 0 0 1 13.7 9l-1 1.7-.9.9v.2A32.4 32.4 0 0 0 13 15v.2c0-.3.1-.5.1-.8a21.8 21.8 0 0 1 1.1-2.7 14.3 14.3 0 0 1 1.4-2l.3-.3h.3c.1 0 .1.1.1.2a1.1 1.1 0 0 1-.1.8c-.3.8-.5 1.5-.8 2.2a7.9 7.9 0 0 1-1.4 2.3l-.6.9c-.1.1-.1.2 0 .2a10.5 10.5 0 0 0 1.3 2.3l3.3 4.6a3 3 0 0 0-.2-1 12.4 12.4 0 0 1-.3-2.7c0-.1 0-.2-.1-.2a3 3 0 0 1-.8-.8 10 10 0 0 1-1-2.9c-.1-.4-.1-.8-.2-1.2 0-.1 0-.2.1-.2h.3l.2.3a16.6 16.6 0 0 1 1.5 3.3v-.3a15.5 15.5 0 0 1 .5-2.3c0-.4.2-.8.2-1.2s0-.5.1-.7a8.8 8.8 0 0 1 .2-1.6c0-.1 0-.2-.1-.2A4.7 4.7 0 0 1 20.7 3a4.6 4.6 0 0 1 5.4 3.7 4.7 4.7 0 0 1-3.8 5.5 6 6 0 0 1-2.3-.1h-.2a7.5 7.5 0 0 1-.7 1.2l-.3.4-.3.6a3.6 3.6 0 0 1-.2 1h.1a8.1 8.1 0 0 1 2.4-1.7l1.9-.7h.4a.3.3 0 0 1 0 .4l-.5.7a8.5 8.5 0 0 1-3 1.9l-1.4.6H18a19.3 19.3 0 0 0-.1 2.4c0 .5.1.9.1 1.4v.2h.1a6.4 6.4 0 0 1 1-1.3 10.5 10.5 0 0 1 3-2.2h.4c0 .1.1.2 0 .3s-.1.2-.1.3a10.2 10.2 0 0 1-1.7 2.4l-1.1.8-1.2.8h-.1c.1.6.3 1.3.4 1.9l.2.4 1.3 1.9zm-1.5-15.1v-.2a6.4 6.4 0 0 1 .6-1.8c.3-.7.7-1.3 1-1.9s.2-.2.3-.2l.2.2c0 .2.1.3.1.4a8.2 8.2 0 0 1-.2 2.2 11.6 11.6 0 0 1-.4 1.8l-.2.3a4.2 4.2 0 0 0 5.2-2.2 4.3 4.3 0 0 0-1.9-5.6 4.4 4.4 0 0 0-5.7 1.7 4.3 4.3 0 0 0 1 5.3zm-5.2 7a19.7 19.7 0 0 0-3.2-1l-3.3-.5a.1.1 0 0 1 .1.1 10.8 10.8 0 0 0 2.9 1.3 8.8 8.8 0 0 0 2.8.2zm2.8 4.1a16 16 0 0 0-6.5-1.2 10.4 10.4 0 0 0 6.5 1.2zm7.4-1.2c-.9.6-3 4.2-3 5.2l.6-.5a10.7 10.7 0 0 0 1.5-2.2 18 18 0 0 0 .8-2.1.8.8 0 0 0 .1-.4zM20.5 7.7a11.1 11.1 0 0 0-1.2 2.7 15.8 15.8 0 0 0-.5 2.9l.2-.3.6-1.1a3.6 3.6 0 0 0 .4-.9 10.1 10.1 0 0 0 .5-2.5zM7.1 9.4h.1l.9 1.6a5.8 5.8 0 0 0 1 1.2 6.5 6.5 0 0 0 2.2 1.1h.1a39.8 39.8 0 0 0-4.3-3.9zm3.8-.4h.1c0-.4.1-.8.1-1.3a8.3 8.3 0 0 0-.3-2.2 7.9 7.9 0 0 0-.6-2.2v-.2a13.2 13.2 0 0 0 .7 5.9zm3.4-3.5a15 15 0 0 0-2.4 5.3c.1 0 .1-.1.2-.2a12.5 12.5 0 0 0 .8-1.2 16.6 16.6 0 0 0 1.2-3.1 3.1 3.1 0 0 0 .2-.8zm7.6 12.3c-1.1.4-3.3 2.5-3.4 3.2a8.7 8.7 0 0 0 3.4-3.2zm-6-7.6a10.9 10.9 0 0 0-2.3 4.7 13.8 13.8 0 0 0 2.3-4.7zm6.7 3.3a8.4 8.4 0 0 0-2.7 1.3 4.9 4.9 0 0 0-1.3 1.2 9.7 9.7 0 0 0 2.3-1.1 7.5 7.5 0 0 0 1.7-1.4zm-3.9 11.2a9.2 9.2 0 0 0-3.7.3c0 .1 0 .1.1.1h1.5a2.8 2.8 0 0 0 2.1-.4zm-2.6-9.5a9.6 9.6 0 0 0 1.2 3.2 8.8 8.8 0 0 0-1.2-3.2z"/><path fill="#fff" d="M18.8 10.9a4.3 4.3 0 0 1-1-5.3 4.4 4.4 0 0 1 5.7-1.7 4.3 4.3 0 0 1 1.9 5.6 4.2 4.2 0 0 1-5.2 2.2l.2-.3a11.6 11.6 0 0 0 .4-1.8 8.2 8.2 0 0 0 .2-2.2c0-.1-.1-.2-.1-.4l-.2-.2c-.1 0-.2 0-.3.2s-.7 1.2-1 1.9a6.4 6.4 0 0 0-.6 1.8zm-5.2 7h-.7a8.8 8.8 0 0 1-2.8-.2 10.8 10.8 0 0 1-2.9-1.3.1.1 0 0 0-.1-.1l3.3.5a19.7 19.7 0 0 1 3.2 1.1zm2.8 4.1a10.4 10.4 0 0 1-6.5-1.2 16 16 0 0 1 6.5 1.2zm7.4-1.2a.8.8 0 0 1-.1.4 18 18 0 0 1-.8 2.1 10.7 10.7 0 0 1-1.5 2.2l-.6.5c0-1 2.1-4.6 3-5.2z"/><path fill="#fff" d="M20.5 7.7v.8A10.1 10.1 0 0 1 20 11a3.6 3.6 0 0 1-.4.9L19 13l-.2.3a15.8 15.8 0 0 1 .5-2.9 11.1 11.1 0 0 1 1.2-2.7zM7.1 9.4a39.8 39.8 0 0 1 4.3 3.9h-.1a6.5 6.5 0 0 1-2.2-1.1 5.8 5.8 0 0 1-1-1.2l-.9-1.5zm3.8-.4a13.2 13.2 0 0 1-.7-5.9v.2a7.9 7.9 0 0 1 .6 2.2 8.3 8.3 0 0 1 .3 2.2c0 .5-.1.9-.1 1.3zm3.4-3.5a3.1 3.1 0 0 1-.2.8 16.6 16.6 0 0 1-1.2 3.1 12.5 12.5 0 0 1-.8 1.2c-.1.1-.1.2-.2.2a15 15 0 0 1 2.4-5.3zm7.6 12.3a8.7 8.7 0 0 1-3.4 3.2c.1-.7 2.3-2.8 3.4-3.2zm-6-7.6a13.8 13.8 0 0 1-2.3 4.7 10.9 10.9 0 0 1 2.3-4.7zm6.7 3.3a7.5 7.5 0 0 1-1.7 1.4 9.7 9.7 0 0 1-2.3 1.1 4.9 4.9 0 0 1 1.3-1.2 8.4 8.4 0 0 1 2.7-1.3zm-3.9 11.2a2.8 2.8 0 0 1-2.1.5h-1.5c-.1 0-.1 0-.1-.1a9.2 9.2 0 0 1 3.7-.4zm-2.6-9.5a8.8 8.8 0 0 1 1.2 3.2 9.6 9.6 0 0 1-1.2-3.2z"/></svg>