<svg id="Layer_1" data-name="Layer 1" xmlns="http://www.w3.org/2000/svg" width="64" height="64" viewBox="0 0 64 64"><title>logo-64</title><path d="M41.6,52.2c.3-.9.6-1.9,1-2.9a25.6,25.6,0,0,1,4.2-7.1,27.3,27.3,0,0,1,2.3-2.5c.3-.2.5-.3.7-.2s.4.4.3.7l-.9,3.2a23.9,23.9,0,0,1-2.8,5.8,19.9,19.9,0,0,1-2.2,2.7,7.5,7.5,0,0,1-1.7,1.4l-.2.2,2.2,3.2,2.7,4.4a.5.5,0,0,1-.1.7.6.6,0,0,1-.7-.2c-1.5-2.6-3.2-5.1-4.8-7.7-.8-1.1-1.6-2.3-2.3-3.5s-.1-.2-.2-.2l-1.6.8a6.6,6.6,0,0,1-2.8.5,27.8,27.8,0,0,1-5.7-.7h-.1c-.2-.1-.4-.2-.4-.5s.1-.4.4-.5l1.7-.6a26.4,26.4,0,0,1,4.9-.8h2.4L35,44.6a26.1,26.1,0,0,1-4.8.5A23.9,23.9,0,0,1,23.7,44a22.7,22.7,0,0,1-5.5-2.5.6.6,0,0,1-.3-.6.5.5,0,0,1,.5-.4,59.4,59.4,0,0,1,7.3.3l4,.9,3.9,1.2h.3l-5-7.1-1.1.4a15.5,15.5,0,0,1-8-.4,21.3,21.3,0,0,1-5.9-2.8l-1.3-.9c-.2-.1-.4-.3-.3-.5s.3-.4.5-.4a9.6,9.6,0,0,1,2.9.3l3,.4a39.2,39.2,0,0,1,6.6,1.5,25,25,0,0,0,2.5.9H28a41,41,0,0,1-3.4-7l-.3-.2a14.4,14.4,0,0,1-6.5-3,10.4,10.4,0,0,1-2.2-2.5,33.3,33.3,0,0,1-2.8-4.8.5.5,0,0,0-.2-.4.5.5,0,0,1,.1-.8c.2-.2.4-.1.7.1l.3.3,2.8,2.4,3.3,2.8L22.5,24l1.2,1.2h.1c-.1-.1-.1-.1-.1-.2a40.5,40.5,0,0,1-1.6-5.7.5.5,0,0,0-.2-.4,32.7,32.7,0,0,1-1.7-5.3,32.3,32.3,0,0,1-.5-8.8c0-.7.1-1.4.1-2.1s.2-.6.4-.6a.6.6,0,0,1,.6.4l.9,2.9A41.2,41.2,0,0,1,23,10a20.9,20.9,0,0,1,.4,4.3,21.9,21.9,0,0,1-.3,3.6,5.3,5.3,0,0,0,.2,2.5l.3-1.1A36.9,36.9,0,0,1,27,11.4a29,29,0,0,1,1.9-2.9l.4-.5c.2-.2.4-.3.6-.2a.5.5,0,0,1,.3.5V9.5a27.2,27.2,0,0,1-2.4,7.3,17.5,17.5,0,0,1-2,3.5A16.2,16.2,0,0,1,24,22.2c-.1.1-.2.2-.1.4a51.7,51.7,0,0,0,2.6,6.9.4.4,0,0,0,.1.3l.3-1.6a31.4,31.4,0,0,1,2.4-5.7,22.1,22.1,0,0,1,2.8-4l.6-.6a.7.7,0,0,1,.6-.1.5.5,0,0,1,.3.5,5.1,5.1,0,0,1-.3,1.7c-.6,1.5-1,3-1.6,4.5a22.5,22.5,0,0,1-2.8,4.7l-1.5,2c-.1.1,0,.2,0,.3a29.2,29.2,0,0,0,2.9,4.8l6.6,9.4.2.3c-.2-.8-.3-1.4-.5-2.1a20.9,20.9,0,0,1-.6-5.6.5.5,0,0,0-.2-.4,4.1,4.1,0,0,1-1.6-1.6,18.7,18.7,0,0,1-2.1-6,20,20,0,0,1-.4-2.4v-.3a.4.4,0,0,1,.2-.5.7.7,0,0,1,.6.1l.3.5a25.8,25.8,0,0,1,3.1,7H36c0-.2.1-.5.1-.7a25.7,25.7,0,0,1,.8-4.7l.6-2.5c.1-.5,0-1,.1-1.4s.3-2.2.5-3.3,0-.3-.2-.4a9.7,9.7,0,1,1,7.9,2.1,9,9,0,0,1-4.6-.3c-.2-.1-.3-.1-.4.1l-1.4,2.4-.7.9a3.4,3.4,0,0,0-.6,1.2c-.1.7-.3,1.4-.4,2.1h.1a16.1,16.1,0,0,1,5-3.5l3.9-1.6c.3,0,.6-.1.8.1a.6.6,0,0,1,0,.8,4.5,4.5,0,0,1-1,1.4,19,19,0,0,1-6.1,4l-3,1.2a.3.3,0,0,0-.3.3,26.8,26.8,0,0,0-.2,4.9,28.1,28.1,0,0,0,.1,2.9.8.8,0,0,0,.1.4.3.3,0,0,1,.1-.2,19.4,19.4,0,0,1,2.1-2.7,21.4,21.4,0,0,1,6.3-4.5h.7c.1.1.2.4.1.5l-.3.8a28.4,28.4,0,0,1-3.7,4.7l-2.3,1.7A22,22,0,0,1,37.5,43c-.1,0-.1.1-.1.2l.9,4.1.3.6L41.4,52C41.5,52.1,41.5,52.2,41.6,52.2ZM38.4,20.9v-.3a23.2,23.2,0,0,1,1.3-3.7c.6-1.4,1.4-2.7,2.1-4.1a.8.8,0,0,1,.7-.2c.2,0,.3.2.3.4l.2.8a22.8,22.8,0,0,1-.4,4.5,16.6,16.6,0,0,1-.9,3.7l-.3.7a8.9,8.9,0,1,0-3-1.8ZM27.6,35.4a44.9,44.9,0,0,0-6.5-2.1l-6.7-1c0,.1.1.1.2.2a18.1,18.1,0,0,0,6,2.7,13.6,13.6,0,0,0,5.7.4Zm5.9,8.5A32.7,32.7,0,0,0,20,41.5,21.8,21.8,0,0,0,33.5,43.9Zm15.3-2.5c-2,1.3-6.2,8.7-6.1,10.7l1.1-1a19,19,0,0,0,3.1-4.5,23.5,23.5,0,0,0,1.7-4.4A3.1,3.1,0,0,0,48.8,41.4Zm-6.7-27H42a18,18,0,0,0-2.4,5.5,31,31,0,0,0-1.1,6l.4-.5c.4-.8.8-1.6,1.3-2.4a14.2,14.2,0,0,0,.8-1.8A18.4,18.4,0,0,0,42,16C42,15.5,42.1,14.9,42.1,14.4ZM14.4,17.9a.4.4,0,0,0,.1.3l1.8,3a12.1,12.1,0,0,0,2.1,2.4A16.8,16.8,0,0,0,23,26h.2A74.8,74.8,0,0,0,14.4,17.9Zm7.8-.8h.1a24.6,24.6,0,0,0,.2-2.6A18.8,18.8,0,0,0,22,9.8a34.7,34.7,0,0,0-1.3-4.6.4.4,0,0,0-.1-.3A28,28,0,0,0,22.2,17.1Zm7-7.4a33.8,33.8,0,0,0-5,11.1c.2-.1.2-.3.3-.4a8.5,8.5,0,0,0,1.7-2.5,29.6,29.6,0,0,0,2.6-6.4A11.6,11.6,0,0,0,29.2,9.7ZM44.9,35.2c-2.3.9-6.8,5.2-7.1,6.6A17.3,17.3,0,0,0,44.9,35.2ZM32.4,19.6a23.3,23.3,0,0,0-4.7,9.6A24.6,24.6,0,0,0,32.4,19.6Zm13.9,6.8A26.1,26.1,0,0,0,40.7,29,12.7,12.7,0,0,0,38,31.5a26.2,26.2,0,0,0,4.8-2.2A16.4,16.4,0,0,0,46.3,26.4ZM38.2,49.6c-1.2-.5-6.5-.1-7.6.6h.2l3.1.4A6,6,0,0,0,38.2,49.6ZM32.9,29.8a16.1,16.1,0,0,0,2.5,6.6A22,22,0,0,0,32.9,29.8Z"/></svg>