<svg xmlns="http://www.w3.org/2000/svg" width="64" height="64" viewBox="0 0 64 64"><path fill="#fff" d="M65 73H-1V-8.7h66zM39.9 51.9c0-.1-.1-.1-.1-.2l-2.7-4a.9.9 0 0 1-.3-.6c-.4-1.3-.7-2.7-1-4a.2.2 0 0 1 .2-.2c.8-.5 1.7-.9 2.5-1.5a11.8 11.8 0 0 0 2.2-1.7 20.4 20.4 0 0 0 3.6-4.6 4.3 4.3 0 0 0 .4-.7 1.1 1.1 0 0 0-.2-.5h-.7a20.2 20.2 0 0 0-6.1 4.4 12.8 12.8 0 0 0-2 2.6l-.2.2v-.4c-.1-.9-.1-1.8-.2-2.8s.1-3.2.2-4.8.1-.2.3-.3l3-1.1a18.6 18.6 0 0 0 6-4 4.5 4.5 0 0 0 1-1.3.8.8 0 0 0-.1-.8c-.2-.2-.5-.1-.7-.1l-3.8 1.6a14.3 14.3 0 0 0-5 3.4.1.1 0 0 1-.1.1v-.2c.2-.6.3-1.3.5-1.9a2.3 2.3 0 0 1 .6-1.2l.6-.9c.5-.8.9-1.6 1.4-2.3s.2-.3.4-.2a8.6 8.6 0 0 0 4.5.3A9.4 9.4 0 1 0 33 14.1a9.2 9.2 0 0 0 3.4 8c.1.2.2.3.1.5s-.3 2.1-.5 3.2a5.7 5.7 0 0 1-.1 1.3 18.4 18.4 0 0 1-.5 2.5 34 34 0 0 0-.9 4.6v.7h-.1a26 26 0 0 0-3-6.8 1 1 0 0 0-.4-.5c-.1-.2-.3-.2-.5-.1a.4.4 0 0 0-.2.5v.2l.3 2.4a20.2 20.2 0 0 0 2.1 5.8 4.6 4.6 0 0 0 1.5 1.6c.2.1.3.2.3.4a20.2 20.2 0 0 0 .6 5.5 19.4 19.4 0 0 0 .5 2l-.2-.2-6.5-9.3a31.4 31.4 0 0 1-2.8-4.6c0-.1-.1-.2 0-.4l1.4-1.9a17.9 17.9 0 0 0 2.7-4.6c.6-1.4 1.1-2.9 1.6-4.4a3 3 0 0 0 .3-1.6c0-.3-.1-.5-.3-.5s-.4-.1-.5.1l-.6.5a26.3 26.3 0 0 0-2.8 4 27.5 27.5 0 0 0-2.3 5.6c-.1.5-.2.9-.3 1.5a.4.4 0 0 1-.1-.3 54 54 0 0 1-2.5-6.8c-.1-.2-.1-.3.1-.4a15.4 15.4 0 0 0 1.7-1.9 16.8 16.8 0 0 0 2-3.4 29.5 29.5 0 0 0 2.3-7.1V9c0-.2 0-.4-.3-.5s-.4 0-.6.2l-.4.4-1.8 2.9a33.9 33.9 0 0 0-3.3 7.8l-.3 1a5.2 5.2 0 0 1-.2-2.5l.3-3.4a15.4 15.4 0 0 0-.5-4.3 36.9 36.9 0 0 0-1.1-4.5 23.1 23.1 0 0 0-1-2.8c-.1-.4-.3-.5-.6-.5a.6.6 0 0 0-.3.6c-.1.7-.1 1.4-.2 2.1a31.2 31.2 0 0 0 .6 8.6 18 18 0 0 0 1.7 5.1c0 .1.1.3.1.4a35.8 35.8 0 0 0 1.6 5.6v.2l-1.2-1.2-2.7-2.6-3.1-2.6-2.8-2.4-.3-.3c-.3-.2-.5-.3-.7-.1a.5.5 0 0 0-.1.8l.3.3a27.7 27.7 0 0 0 2.6 4.8 10 10 0 0 0 2.2 2.4 12.6 12.6 0 0 0 6.3 2.9c.1.1.3.1.3.2a43.7 43.7 0 0 0 3.3 6.9h-.1l-2.5-.8a29.4 29.4 0 0 0-6.5-1.6l-2.9-.4a12.7 12.7 0 0 0-2.8-.2.5.5 0 0 0-.5.3c-.1.3.1.4.3.6l1.3.8a20.2 20.2 0 0 0 5.7 2.8 14.1 14.1 0 0 0 7.9.3l1-.3 4.9 6.9c-.1 0-.2 0-.2-.1l-3.9-1.2-3.9-.8c-2.3-.5-4.8-.2-7.2-.4a.4.4 0 0 0-.4.4.6.6 0 0 0 .3.6 22 22 0 0 0 5.4 2.5 25.9 25.9 0 0 0 6.3 1 24.9 24.9 0 0 0 4.7-.4l2.9 3.8H34a20.1 20.1 0 0 0-4.8.8l-1.7.5a.7.7 0 0 0-.4.5.7.7 0 0 0 .4.5h.2a25.1 25.1 0 0 0 5.5.7 6.6 6.6 0 0 0 2.8-.5l1.5-.8.2.2 2.2 3.5c1.6 2.5 3.3 4.9 4.8 7.4.1.3.4.4.6.2a.4.4 0 0 0 .1-.6l-2.6-4.3-2.2-3.2h.2l1.7-1.4a17.1 17.1 0 0 0 2.1-2.8 20.7 20.7 0 0 0 2.8-5.8c.3-1 .6-2 .8-3a.6.6 0 0 0-.2-.7c-.2-.1-.4-.1-.7.2a26.1 26.1 0 0 0-2.3 2.4 27.4 27.4 0 0 0-4.1 7c-.4.9-.6 1.8-1 2.8z"/><path d="M39.9 51.9c.4-1 .6-1.9 1-2.8a27.4 27.4 0 0 1 4.1-7 26.1 26.1 0 0 1 2.3-2.4c.3-.3.5-.3.7-.2a.6.6 0 0 1 .2.7c-.2 1-.5 2-.8 3a20.7 20.7 0 0 1-2.8 5.8 17.1 17.1 0 0 1-2.1 2.6L40.8 53h-.2l2.2 3.2 2.6 4.3a.4.4 0 0 1-.1.6c-.2.2-.5.1-.6-.2-1.5-2.5-3.2-4.9-4.8-7.4L37.7 50l-.2-.2-1.5.8a6.6 6.6 0 0 1-2.8.5 25.1 25.1 0 0 1-5.5-.7h-.2a.7.7 0 0 1-.4-.5.7.7 0 0 1 .4-.5l1.7-.5a20.1 20.1 0 0 1 4.8-.8h2.4l-2.9-3.8a24.9 24.9 0 0 1-4.7.4 25.9 25.9 0 0 1-6.3-1 22 22 0 0 1-5.4-2.5.6.6 0 0 1-.3-.6.4.4 0 0 1 .4-.4c2.4.2 4.9-.1 7.2.4l3.9.8 3.9 1.2c0 .1.1.1.2.1L27.5 36l-1 .3a14.1 14.1 0 0 1-7.9-.3 20.2 20.2 0 0 1-5.7-2.8l-1.3-.8c-.2-.2-.4-.3-.3-.6a.5.5 0 0 1 .5-.3 12.7 12.7 0 0 1 2.8.2l2.9.4a29.4 29.4 0 0 1 6.5 1.6l2.5.8h.1a43.7 43.7 0 0 1-3.3-6.9c0-.1-.2-.1-.3-.2a12.6 12.6 0 0 1-6.3-2.9 10 10 0 0 1-2.2-2.4 27.7 27.7 0 0 1-2.6-4.8l-.3-.3a.5.5 0 0 1 .1-.8c.2-.2.4-.1.7.1l.3.3 2.8 2.4 3.1 2.7 2.7 2.6 1.2 1.2v-.2a35.8 35.8 0 0 1-1.6-5.6c0-.1-.1-.3-.1-.4a18 18 0 0 1-1.7-5.1 31.2 31.2 0 0 1-.6-8.6c.1-.7.1-1.4.2-2.1a.6.6 0 0 1 .3-.6c.3 0 .5.1.6.5a23.1 23.1 0 0 1 1 2.8 36.9 36.9 0 0 1 1.1 4.5 15.4 15.4 0 0 1 .5 4.3l-.3 3.4a5.2 5.2 0 0 0 .2 2.5l.3-1a33.9 33.9 0 0 1 3.3-7.9l1.8-2.9.4-.4c.2-.2.4-.3.6-.2s.3.3.3.5v1.2a29.5 29.5 0 0 1-2.3 7.1 16.8 16.8 0 0 1-2 3.4 15.4 15.4 0 0 1-1.7 1.9c-.2.1-.2.2-.1.4a54 54 0 0 0 2.5 6.7.4.4 0 0 0 .1.3c.1-.6.2-1 .3-1.5a27.5 27.5 0 0 1 2.3-5.6 26.3 26.3 0 0 1 2.8-4l.6-.5c.1-.2.3-.2.5-.1s.3.2.3.5a3 3 0 0 1-.3 1.6c-.5 1.5-1 3-1.6 4.4a17.9 17.9 0 0 1-2.7 4.6l-1.4 1.9c-.1.2 0 .3 0 .4a31.4 31.4 0 0 0 2.8 4.6l6.5 9.3.2.2a19.4 19.4 0 0 1-.5-2 20.2 20.2 0 0 1-.6-5.5c0-.2-.1-.3-.3-.4a4.6 4.6 0 0 1-1.5-1.6 20.2 20.2 0 0 1-2.1-5.8l-.3-2.4v-.2a.4.4 0 0 1 .2-.5c.2-.1.4-.1.5.1a1 1 0 0 1 .4.5 26 26 0 0 1 3 6.8h.1v-.7a34 34 0 0 1 .9-4.6 18.4 18.4 0 0 0 .5-2.5 5.7 5.7 0 0 0 .1-1.3c.2-1.1.4-2.2.5-3.2s0-.3-.1-.5a9.2 9.2 0 0 1-3.4-8 9.5 9.5 0 1 1 11.1 10.2 8.6 8.6 0 0 1-4.5-.3c-.2-.1-.3 0-.4.2s-.9 1.5-1.4 2.3l-.6.9a2.3 2.3 0 0 0-.6 1.2c-.2.6-.3 1.3-.5 1.9v.2a.1.1 0 0 0 .1-.1 14.3 14.3 0 0 1 5-3.4l3.8-1.6c.2 0 .5-.1.7.1a.8.8 0 0 1 .1.8 4.5 4.5 0 0 1-1 1.3 18.6 18.6 0 0 1-6 4l-3 1.1c-.2.1-.2.1-.3.3s-.2 3.2-.2 4.8.1 1.9.2 2.8v.4l.2-.2a12.8 12.8 0 0 1 2-2.6 20.2 20.2 0 0 1 6.1-4.4h.7a1.1 1.1 0 0 1 .2.5 4.3 4.3 0 0 1-.4.7 20.4 20.4 0 0 1-3.6 4.6 11.8 11.8 0 0 1-2.2 1.7c-.8.6-1.7 1-2.5 1.5a.2.2 0 0 0-.2.2c.3 1.3.6 2.7 1 4a.9.9 0 0 0 .3.6l2.7 4c0 .1.1.1.1.2zm-3.1-30.6a.4.4 0 0 1 .1-.3 25.3 25.3 0 0 1 1.2-3.6 21.9 21.9 0 0 1 2.1-4 .5.5 0 0 1 .6-.2c.2 0 .3.2.4.4s.1.5.1.7a31.5 31.5 0 0 1-.3 4.4 22.4 22.4 0 0 1-1 3.7c-.1.2-.1.4-.2.6a8.4 8.4 0 0 0 10.4-4.5A8.5 8.5 0 0 0 35 10.7a8.5 8.5 0 0 0 1.8 10.6zM26.3 35.5a47.9 47.9 0 0 0-6.4-2.1c-1.3-.2-6.3-1-6.6-.9h.3a17.1 17.1 0 0 0 5.8 2.7 15 15 0 0 0 5.6.4zm5.7 8.3a31 31 0 0 0-13.2-2.4A22.5 22.5 0 0 0 32 43.8zm15-2.5c-1.9 1.3-6.1 8.5-6 10.5l1.1-1a19 19 0 0 0 3-4.4 25.6 25.6 0 0 0 1.7-4.3c.1-.3.1-.5.2-.8zm-6.6-26.4h-.1a21.4 21.4 0 0 0-2.3 5.4 29.1 29.1 0 0 0-1.1 5.9l.4-.5c.4-.8.8-1.6 1.3-2.4s.6-1.1.8-1.7a21.8 21.8 0 0 0 .9-5.1 8.1 8.1 0 0 0 .1-1.6zm-27 3.5c0 .1 0 .1.1.2l1.8 3a7.4 7.4 0 0 0 2 2.3 12.8 12.8 0 0 0 4.5 2.3h.2a71.3 71.3 0 0 0-8.6-7.8zm7.6-.8h.1a22.8 22.8 0 0 0 .2-2.6 23 23 0 0 0-.5-4.5 23.9 23.9 0 0 0-1.2-4.6.4.4 0 0 1-.1-.3 27.1 27.1 0 0 0 1.5 12zm6.8-7.2A31.9 31.9 0 0 0 23 21.2l.3-.4a12.5 12.5 0 0 0 1.6-2.4 28.9 28.9 0 0 0 2.6-6.3zm15.3 24.9c-2.2.9-6.6 5-6.8 6.4a16.1 16.1 0 0 0 6.8-6.4zM31 20a23.2 23.2 0 0 0-4.7 9.4A24.5 24.5 0 0 0 31 20zm13.5 6.7a22 22 0 0 0-5.4 2.5 15.5 15.5 0 0 0-2.7 2.4 22.6 22.6 0 0 0 4.8-2.1 14.8 14.8 0 0 0 3.3-2.8zm-7.9 22.6c-1.1-.5-6.3 0-7.4.6h.2l3 .3a5.7 5.7 0 0 0 4.2-.9zM31.5 30a16 16 0 0 0 2.4 6.4 24.8 24.8 0 0 0-2.4-6.4z"/><path fill="#fff" d="M36.8 21.3a8.6 8.6 0 0 1 9.5-14.1 8.6 8.6 0 0 1 3.9 11.3A8.4 8.4 0 0 1 39.8 23c.1-.2.1-.4.2-.6a22.4 22.4 0 0 0 1-3.7 31.5 31.5 0 0 0 .3-4.4c0-.2-.1-.5-.1-.7s-.2-.4-.4-.4a.5.5 0 0 0-.6.2 21.9 21.9 0 0 0-2.1 4 25.3 25.3 0 0 0-1.2 3.6.4.4 0 0 0-.1.3zM26.3 35.5l-1.3.2a15 15 0 0 1-5.6-.4 17.1 17.1 0 0 1-5.8-2.7h-.3c.3-.1 5.3.7 6.6.9a47.9 47.9 0 0 1 6.4 2zm5.7 8.3a22.5 22.5 0 0 1-13.2-2.4A31 31 0 0 1 32 43.8zm15-2.5c-.1.3-.1.5-.2.8a25.6 25.6 0 0 1-1.7 4.3 19 19 0 0 1-3 4.4l-1.1 1c-.1-2 4.1-9.2 6-10.5z"/><path fill="#fff" d="M40.4 14.9a8.1 8.1 0 0 1-.1 1.6 21.8 21.8 0 0 1-.9 5.1c-.2.6-.6 1.2-.8 1.7s-.9 1.6-1.3 2.4l-.4.5a29.1 29.1 0 0 1 1.1-5.9 21.4 21.4 0 0 1 2.3-5.4zm-27 3.5a71.3 71.3 0 0 1 8.6 7.9h-.2a12.8 12.8 0 0 1-4.5-2.3 7.4 7.4 0 0 1-2-2.3l-1.8-3c-.1-.2-.1-.2-.1-.3zm7.6-.8a27.1 27.1 0 0 1-1.5-12 .4.4 0 0 0 .1.3 23.9 23.9 0 0 1 1.2 4.6 23 23 0 0 1 .5 4.5 22.8 22.8 0 0 1-.2 2.6zm6.8-7.2l-.3 1.7a28.9 28.9 0 0 1-2.6 6.3 12.5 12.5 0 0 1-1.6 2.4l-.3.4a31.9 31.9 0 0 1 4.8-10.8zm15.3 24.9a16.1 16.1 0 0 1-6.8 6.4c.2-1.4 4.6-5.5 6.8-6.4zM31 20a24.5 24.5 0 0 1-4.7 9.4A23.2 23.2 0 0 1 31 20zm13.5 6.7a14.8 14.8 0 0 1-3.3 2.8 22.6 22.6 0 0 1-4.8 2.1 15.5 15.5 0 0 1 2.7-2.4 22 22 0 0 1 5.4-2.5zm-7.9 22.6a5.7 5.7 0 0 1-4.2 1l-3-.3h-.2c1.1-.7 6.3-1.2 7.4-.7zM31.5 30a24.8 24.8 0 0 1 2.4 6.4 16 16 0 0 1-2.4-6.4z"/></svg>