<svg xmlns="http://www.w3.org/2000/svg" width="16" height="16" viewBox="0 0 16 16"><path fill="#2b2b2b" d="M10.3 12.8l.3-.7a5.6 5.6 0 0 1 .9-1.7l.6-.6h.2a2.4 2.4 0 0 1-.2.8 3.1 3.1 0 0 1-.6 1.3l-.5.7-.5.3.5.8.6 1c.1.1.1.2 0 .2h-.1l-1.2-1.7-.5-.9-.4.2h-.7l-1.3-.2h-.1c0-.1 0-.1.1-.1l.4-.2h1.7l-.7-1H7.7a3.7 3.7 0 0 1-1.5-.3 3.1 3.1 0 0 1-1.3-.6h1.7l.9.2 1 .3-1.1-1.7h-.3a3.1 3.1 0 0 1-1.9-.1 3.1 3.1 0 0 1-1.3-.6L3.5 8v-.1h.1c.2-.1.5 0 .7 0H5l1.5.4.6.2a12.2 12.2 0 0 1-.7-1.7h-.1a2.6 2.6 0 0 1-1.5-.7l-.6-.6-.6-1c-.1-.1-.1-.2 0-.2h.2l.7.6.7.6.7.7.3.2h-.1L5.8 5h-.1l-.4-1.3a14.8 14.8 0 0 1-.1-2.1v-.5h.3a1.9 1.9 0 0 0 .2.7L6 2.9c0 .3.1.6.1 1s-.1.5-.1.8a1.3 1.3 0 0 0 .1.6v-.2a10.8 10.8 0 0 1 .8-1.9l.5-.7a.1.1 0 0 1 .1-.1s0-.1.1 0 .1 0 .1.1v.3a5.8 5.8 0 0 1-.6 1.7l-.5.8a.8.8 0 0 1-.4.4l.6 1.6c.1-.1.1-.2.1-.4a3.8 3.8 0 0 1 .6-1.3 2.8 2.8 0 0 1 .6-.9l.2-.2h.2c0 .1-.1.3-.1.4A4.9 4.9 0 0 1 8 6.3l-.6 1.1-.4.4A4.1 4.1 0 0 0 7.7 9l1.5 2.2a.1.1 0 0 1 .1.1.9.9 0 0 1-.1-.5A5.9 5.9 0 0 1 9 9.5L8.6 9a5.8 5.8 0 0 1-.5-1.4.7.7 0 0 0-.1-.5h.1c0-.1.1 0 .1 0h.1A11.1 11.1 0 0 1 9 8.6v-.1a4.3 4.3 0 0 0 .2-1.1c.1-.2.1-.4.2-.6v-.3c0-.3.1-.5.1-.8a2 2 0 0 1-.8-1.9 2.1 2.1 0 0 1 1.9-2 2.2 2.2 0 1 1 .7 4.4 1.4 1.4 0 0 1-1.1-.2h-.1l-.3.5a.3.3 0 0 1-.1.2l-.2.3a.7.7 0 0 1-.1.5l1.2-.8.9-.4h.2c.1.1.1.2 0 .2a.5.5 0 0 1-.2.4 4.2 4.2 0 0 1-1.4.9l-.8.3a3.7 3.7 0 0 0-.1 1.1 2 2 0 0 0 .1.7l.5-.6a4.2 4.2 0 0 1 1.5-1.1h.1v.2h-.1a4.8 4.8 0 0 1-.9 1.1 1 1 0 0 1-.5.4l-.6.4a3 3 0 0 0 .2 1l.7 1zm-.7-7.4l.3-.9a3.1 3.1 0 0 1 .5-1h.1c.1 0 .1 0 .1.1v.2c0 .3-.1.7-.1 1s-.1.6-.2.9h-.1a2 2 0 0 0 2.5-1 2 2 0 0 0-.9-2.7 2.1 2.1 0 0 0-2.8.8 2 2 0 0 0 .6 2.6zM7.1 8.8l-1.6-.5L4 8.1l1.4.7h1.7zm1.3 2a8.1 8.1 0 0 0-3.1-.6 4.8 4.8 0 0 0 3.1.6zm3.6-.6a6.2 6.2 0 0 0-1.4 2.5l.3-.2.7-1.1a4.2 4.2 0 0 0 .4-1zm-1.6-6.3a5 5 0 0 0-.5 1.3 5.8 5.8 0 0 0-.3 1.4h.1L10 6c.1-.1.1-.3.2-.4a5 5 0 0 0 .2-1.2zM4 4.7l.4.7c.2.2.3.4.5.5a2.4 2.4 0 0 0 1.1.7 18 18 0 0 0-2-1.9zm1.8-.2c0-.2.1-.4.1-.6s-.1-.7-.1-1.1l-.3-1.1h-.1a6.6 6.6 0 0 0 .4 2.8zm1.6-1.7a8.5 8.5 0 0 0-1.1 2.6l.4-.6a3.9 3.9 0 0 0 .6-1.5.6.6 0 0 0 .1-.5zm3.7 6c-.5.2-1.6 1.2-1.6 1.5a3.9 3.9 0 0 0 1.6-1.5zM8.2 5.1a4.9 4.9 0 0 0-1.1 2.3 6.1 6.1 0 0 0 1.1-2.3zm3.2 1.6l-1.3.6-.6.6 1.1-.5a2.7 2.7 0 0 0 .8-.7zm-1.9 5.4a3.3 3.3 0 0 0-1.7.2h.7a1.7 1.7 0 0 0 1-.2zM8.3 7.5A3.9 3.9 0 0 0 8.9 9a4.7 4.7 0 0 0-.6-1.5z"/></svg>