<svg id="Layer_1" data-name="Layer 1" xmlns="http://www.w3.org/2000/svg" width="16" height="16" viewBox="0 0 16 16"><title>logo-16</title><path d="M10.3,12.8l.3-.7a5.6,5.6,0,0,1,.9-1.7l.6-.6h.2a2.4,2.4,0,0,1-.2.8,3.1,3.1,0,0,1-.6,1.3l-.5.7-.5.3h0l.5.8.6,1c.1.1.1.2,0,.2h-.1l-1.2-1.7-.5-.9h0l-.4.2H8.7l-1.3-.2H7.3c0-.1,0-.1.1-.1l.4-.2H9.5L8.8,11H7.7a3.7,3.7,0,0,1-1.5-.3,3.1,3.1,0,0,1-1.3-.6H6.6l.9.2,1,.3h0L7.4,8.9H7.1a3.1,3.1,0,0,1-1.9-.1,3.1,3.1,0,0,1-1.3-.6l-.4-.2V7.9h.1c.2-.1.5,0,.7,0H5l1.5.4.6.2h0a12.2,12.2,0,0,1-.7-1.7H6.3a2.6,2.6,0,0,1-1.5-.7l-.6-.6L3.6,4.5h0c-.1-.1-.1-.2,0-.2h.2l.7.6.7.6.7.7.3.2H6.1L5.8,5H5.7L5.3,3.7a14.8,14.8,0,0,1-.1-2.1V1.1h.3a1.9,1.9,0,0,0,.2.7L6,2.9c0,.3.1.6.1,1s-.1.5-.1.8a1.3,1.3,0,0,0,.1.6V5.1a10.8,10.8,0,0,1,.8-1.9l.5-.7a.1.1,0,0,1,.1-.1s0-.1.1,0,.1,0,.1.1v.3a5.8,5.8,0,0,1-.6,1.7l-.5.8a.8.8,0,0,1-.4.4h0l.6,1.6h0c.1-.1.1-.2.1-.4a3.8,3.8,0,0,1,.6-1.3,2.8,2.8,0,0,1,.6-.9l.2-.2h.2c0,.1-.1.3-.1.4A4.9,4.9,0,0,1,8,6.3L7.4,7.4,7,7.8H7A4.1,4.1,0,0,0,7.7,9l1.5,2.2a.1.1,0,0,1,.1.1.9.9,0,0,1-.1-.5A5.9,5.9,0,0,1,9,9.5H9L8.6,9a5.8,5.8,0,0,1-.5-1.4A.7.7,0,0,0,8,7.1h.1c0-.1.1,0,.1,0h.1A11.1,11.1,0,0,1,9,8.6H9V8.5a4.3,4.3,0,0,0,.2-1.1c.1-.2.1-.4.2-.6V6.5c0-.3.1-.5.1-.8h0a2,2,0,0,1-.8-1.9,2.1,2.1,0,0,1,1.9-2,2.2,2.2,0,1,1,.7,4.4A1.4,1.4,0,0,1,10.2,6h-.1l-.3.5a.3.3,0,0,1-.1.2l-.2.3a.7.7,0,0,1-.1.5h0l1.2-.8.9-.4h.2c.1.1.1.2,0,.2a.5.5,0,0,1-.2.4,4.2,4.2,0,0,1-1.4.9l-.8.3h0a3.7,3.7,0,0,0-.1,1.1,2,2,0,0,0,.1.7h0l.5-.6a4.2,4.2,0,0,1,1.5-1.1h.1v.2h-.1a4.8,4.8,0,0,1-.9,1.1,1,1,0,0,1-.5.4l-.6.4h0a3,3,0,0,0,.2,1h0l.7,1ZM9.6,5.4h0l.3-.9a3.1,3.1,0,0,1,.5-1h.1c.1,0,.1,0,.1.1v.2c0,.3-.1.7-.1,1s-.1.6-.2.9h-.1a2,2,0,0,0,2.5-1,2,2,0,0,0-.9-2.7,2.1,2.1,0,0,0-2.8.8A2,2,0,0,0,9.6,5.4ZM7.1,8.8,5.5,8.3,4,8.1H4l1.4.7H7.1Zm1.3,2a8.1,8.1,0,0,0-3.1-.6A4.8,4.8,0,0,0,8.4,10.8Zm3.6-.6a6.2,6.2,0,0,0-1.4,2.5l.3-.2.7-1.1a4.2,4.2,0,0,0,.4-1ZM10.4,3.9h0a5,5,0,0,0-.5,1.3,5.8,5.8,0,0,0-.3,1.4h.1l.3-.6c.1-.1.1-.3.2-.4a5,5,0,0,0,.2-1.2ZM4,4.7H4l.4.7c.2.2.3.4.5.5A2.4,2.4,0,0,0,6,6.6H6A18,18,0,0,0,4,4.7Zm1.8-.2h0c0-.2.1-.4.1-.6s-.1-.7-.1-1.1L5.5,1.7H5.4A6.6,6.6,0,0,0,5.8,4.5ZM7.4,2.8A8.5,8.5,0,0,0,6.3,5.4h0l.4-.6a3.9,3.9,0,0,0,.6-1.5A.6.6,0,0,0,7.4,2.8Zm3.7,6c-.5.2-1.6,1.2-1.6,1.5A3.9,3.9,0,0,0,11.1,8.8ZM8.2,5.1A4.9,4.9,0,0,0,7.1,7.4,6.1,6.1,0,0,0,8.2,5.1Zm3.2,1.6-1.3.6-.6.6,1.1-.5A2.7,2.7,0,0,0,11.4,6.7ZM9.5,12.1a3.3,3.3,0,0,0-1.7.2h.7A1.7,1.7,0,0,0,9.5,12.1ZM8.3,7.5A3.9,3.9,0,0,0,8.9,9,4.7,4.7,0,0,0,8.3,7.5Z"/></svg>